# xmcd
#
# Track frame offsets:
#	150
#	13132
#	23317
#	33310
#	43825
#	55942
#	68157
#	80157
#	88622
#	98132
#	107985
#	117207
#	128582
#	137012
#	153497
#
# Disc length: 2227 seconds
#
# Revision: 3
# Processed by: cddbd v1.5.1PL0 Copyright (c) Steve Scherf et al.
# Submitted via: EasyCDDAExtractor 7.0.4.1
#
DISCID=c008b10f
DTITLE=Elvis Presley - Collector's Gold - Disc 2 Nashville
DYEAR=1991
DGENRE=Rock and Roll
TTITLE0=Like A Baby (#1, 2)
TTITLE1=There's Always Me (#4)
TTITLE2=I Want You With Me (#1)
TTITLE3=Gently (#3)
TTITLE4=Give Me The Right (#1)
TTITLE5=I Met Her Today (#1)
TTITLE6=Night Rider (#1, 2)
TTITLE7=Just Tell Her Jim Said Hello (#1)
TTITLE8=Ask Me (#2)
TTITLE9=Memphis, Tennessee (#2)
TTITLE10=Love Me Tonight (#1)
TTITLE11=Witchcraft (#1)
TTITLE12=Come What May (#6)
TTITLE13=Love Letters (#4, 7)
TTITLE14=Going Home (#24, 21)
EXTD=YEAR: 1991
EXTT0=
EXTT1=
EXTT2=
EXTT3=
EXTT4=
EXTT5=
EXTT6=
EXTT7=
EXTT8=
EXTT9=
EXTT10=
EXTT11=
EXTT12=
EXTT13=
EXTT14=
PLAYORDER=
